<svg xmlns="http://www.w3.org/2000/svg">

    <symbol id="twitter" viewBox="0 0 24 22">
        <g>
            <path d="M23 1.01121C23 1.01121 20.982 2.33981 19.86 2.71654C19.2577 1.9447 18.4573 1.39763 17.567 1.14934C16.6767 0.901042 15.7395 0.963498 14.8821 1.32826C14.0247 1.69302 13.2884 2.34249 12.773 3.18882C12.2575 4.03515 11.9877 5.03751 12 6.06034V7.17494C10.2426 7.22573 8.50127 6.79131 6.93101 5.91037C5.36074 5.02942 4.01032 3.72931 3 2.12581C3 2.12581 -1 12.1572 8 16.6156C5.94053 18.1738 3.48716 18.9551 1 18.8448C10 24.4178 21 18.8448 21 6.0269C21 5.71704 20.972 5.40718 20.92 5.10178C21.94 3.9805 23 1.01121 23 1.01121Z" stroke-width="1.5" stroke-linecap="round" stroke-linejoin="round"/>
        </g>
    </symbol>

    <symbol id="instagram" viewBox="0 0 24 22">
        <g>
            <path d="M18.05 5.5H18.061M6.5 1H17.5C20.5376 1 23 3.23858 23 6V16C23 18.7614 20.5376 21 17.5 21H6.5C3.46243 21 1 18.7614 1 16V6C1 3.23858 3.46243 1 6.5 1ZM16.4 10.37C16.5358 11.2022 16.3794 12.0522 15.9531 12.799C15.5269 13.5458 14.8525 14.1514 14.0258 14.5297C13.1991 14.9079 12.2623 15.0396 11.3486 14.9059C10.4348 14.7723 9.59074 14.3801 8.93632 13.7852C8.28191 13.1902 7.85051 12.4229 7.70347 11.5922C7.55644 10.7616 7.70127 9.90989 8.11736 9.15837C8.53345 8.40685 9.19961 7.79374 10.0211 7.40624C10.8426 7.01874 11.7775 6.87659 12.693 7C13.6268 7.12588 14.4913 7.52146 15.1589 8.12831C15.8264 8.73515 16.2615 9.52108 16.4 10.37Z" stroke-width="1.5" stroke-linecap="round" stroke-linejoin="round"/>
        </g>
    </symbol>

</svg>